<svg width="39" height="39" viewBox="0 0 39 39" fill="none" xmlns="http://www.w3.org/2000/svg">
<g clip-path="url(#clip0_1_16)">
<path fill-rule="evenodd" clip-rule="evenodd" d="M2.4375 19.5C2.4375 24.0253 4.23515 28.3652 7.43499 31.565C10.6348 34.7648 14.9747 36.5625 19.5 36.5625C24.0253 36.5625 28.3652 34.7648 31.565 31.565C34.7648 28.3652 36.5625 24.0253 36.5625 19.5C36.5625 14.9747 34.7648 10.6348 31.565 7.43499C28.3652 4.23515 24.0253 2.4375 19.5 2.4375C14.9747 2.4375 10.6348 4.23515 7.43499 7.43499C4.23515 10.6348 2.4375 14.9747 2.4375 19.5ZM39 19.5C39 24.6717 36.9455 29.6316 33.2886 33.2886C29.6316 36.9455 24.6717 39 19.5 39C14.3283 39 9.36838 36.9455 5.71142 33.2886C2.05446 29.6316 0 24.6717 0 19.5C0 14.3283 2.05446 9.36838 5.71142 5.71142C9.36838 2.05446 14.3283 0 19.5 0C24.6717 0 29.6316 2.05446 33.2886 5.71142C36.9455 9.36838 39 14.3283 39 19.5ZM20.7188 10.9688C20.7188 10.6455 20.5903 10.3355 20.3618 10.107C20.1332 9.8784 19.8232 9.75 19.5 9.75C19.1768 9.75 18.8668 9.8784 18.6382 10.107C18.4097 10.3355 18.2812 10.6455 18.2812 10.9688V25.0892L13.0504 19.8559C12.8215 19.627 12.5111 19.4985 12.1875 19.4985C11.8639 19.4985 11.5535 19.627 11.3246 19.8559C11.0958 20.0847 10.9672 20.3951 10.9672 20.7188C10.9672 21.0424 11.0958 21.3528 11.3246 21.5816L18.6371 28.8941C18.7503 29.0076 18.8848 29.0977 19.0329 29.1591C19.181 29.2206 19.3397 29.2522 19.5 29.2522C19.6603 29.2522 19.819 29.2206 19.9671 29.1591C20.1152 29.0977 20.2497 29.0076 20.3629 28.8941L27.6754 21.5816C27.9042 21.3528 28.0328 21.0424 28.0328 20.7188C28.0328 20.3951 27.9042 20.0847 27.6754 19.8559C27.4465 19.627 27.1361 19.4985 26.8125 19.4985C26.4889 19.4985 26.1785 19.627 25.9496 19.8559L20.7188 25.0892V10.9688Z" fill="white"/>
</g>
<defs>
<clipPath id="clip0_1_16">
<rect width="39" height="39" fill="white"/>
</clipPath>
</defs>
</svg>
