<svg width="3720" height="579" viewBox="0 0 3720 579" fill="none" xmlns="http://www.w3.org/2000/svg">
<circle cx="226" cy="451" r="63" fill="white"/>
<circle cx="226" cy="126" r="63" fill="white"/>
<circle cx="226" cy="289" r="63" fill="white"/>
<circle cx="389" cy="289" r="63" fill="white"/>
<circle cx="63" cy="287" r="63" fill="white"/>
<path d="M686.475 319.924H661.084V434.914C661.084 450.051 657.747 461.2 651.074 468.361C644.401 475.523 635.693 479.104 624.951 479.104C613.395 479.104 604.443 475.36 598.096 467.873C591.748 460.386 588.574 449.4 588.574 434.914V159.523C588.574 143.898 592.074 132.587 599.072 125.588C606.071 118.589 617.383 115.09 633.008 115.09H750.928C767.204 115.09 781.12 115.822 792.676 117.287C804.232 118.589 814.648 121.356 823.926 125.588C835.156 130.308 845.085 137.062 853.711 145.852C862.337 154.641 868.848 164.895 873.242 176.613C877.799 188.169 880.078 200.458 880.078 213.479C880.078 240.171 872.51 261.493 857.373 277.443C842.399 293.394 819.613 304.706 789.014 311.379C801.872 318.215 814.16 328.306 825.879 341.652C837.598 354.999 848.014 369.24 857.129 384.377C866.406 399.351 873.568 412.941 878.613 425.148C883.822 437.193 886.426 445.493 886.426 450.051C886.426 454.771 884.88 459.491 881.787 464.211C878.857 468.768 874.788 472.349 869.58 474.953C864.372 477.72 858.35 479.104 851.514 479.104C843.376 479.104 836.54 477.15 831.006 473.244C825.472 469.501 820.671 464.699 816.602 458.84C812.695 452.98 807.324 444.354 800.488 432.961L771.436 384.621C761.019 366.88 751.66 353.371 743.359 344.094C735.221 334.816 726.921 328.469 718.457 325.051C709.993 321.633 699.333 319.924 686.475 319.924ZM727.979 169.533H661.084V267.922H726.025C743.441 267.922 758.089 266.457 769.971 263.527C781.852 260.435 790.885 255.308 797.07 248.146C803.418 240.822 806.592 230.812 806.592 218.117C806.592 208.189 804.069 199.481 799.023 191.994C793.978 184.344 786.979 178.648 778.027 174.904C769.564 171.324 752.881 169.533 727.979 169.533ZM1184.77 170.998H1021.44V258.889H1171.83C1182.89 258.889 1191.11 261.411 1196.48 266.457C1202.02 271.34 1204.79 277.85 1204.79 285.988C1204.79 294.126 1202.1 300.799 1196.73 306.008C1191.36 311.053 1183.06 313.576 1171.83 313.576H1021.44V415.383H1190.38C1201.77 415.383 1210.32 418.068 1216.02 423.439C1221.88 428.648 1224.8 435.646 1224.8 444.436C1224.8 452.899 1221.88 459.816 1216.02 465.188C1210.32 470.396 1201.77 473 1190.38 473H993.359C977.572 473 966.178 469.501 959.18 462.502C952.344 455.503 948.926 444.191 948.926 428.566V159.523C948.926 149.107 950.472 140.643 953.564 134.133C956.657 127.46 961.458 122.658 967.969 119.729C974.642 116.636 983.105 115.09 993.359 115.09H1184.77C1196.32 115.09 1204.87 117.694 1210.4 122.902C1216.1 127.948 1218.95 134.621 1218.95 142.922C1218.95 151.385 1216.1 158.221 1210.4 163.43C1204.87 168.475 1196.32 170.998 1184.77 170.998ZM1554.39 365.578C1554.39 387.225 1548.78 406.675 1537.55 423.928C1526.48 441.18 1510.21 454.689 1488.72 464.455C1467.24 474.221 1441.76 479.104 1412.3 479.104C1376.99 479.104 1347.85 472.43 1324.9 459.084C1308.63 449.481 1295.36 436.704 1285.11 420.754C1275.02 404.641 1269.97 389.016 1269.97 373.879C1269.97 365.09 1272.98 357.603 1279 351.418C1285.19 345.07 1293 341.896 1302.44 341.896C1310.09 341.896 1316.52 344.338 1321.73 349.221C1327.1 354.104 1331.66 361.346 1335.4 370.949C1339.96 382.342 1344.84 391.864 1350.05 399.514C1355.42 407.163 1362.91 413.511 1372.51 418.557C1382.11 423.439 1394.73 425.881 1410.35 425.881C1431.84 425.881 1449.25 420.917 1462.6 410.988C1476.11 400.897 1482.86 388.365 1482.86 373.391C1482.86 361.509 1479.2 351.906 1471.88 344.582C1464.71 337.095 1455.35 331.398 1443.8 327.492C1432.41 323.586 1417.11 319.436 1397.9 315.041C1372.18 309.019 1350.62 302.02 1333.2 294.045C1315.95 285.907 1302.2 274.921 1291.94 261.086C1281.85 247.089 1276.81 229.755 1276.81 209.084C1276.81 189.39 1282.18 171.893 1292.92 156.594C1303.66 141.294 1319.21 129.576 1339.55 121.438C1359.9 113.137 1383.82 108.986 1411.33 108.986C1433.3 108.986 1452.26 111.753 1468.21 117.287C1484.33 122.658 1497.67 129.901 1508.25 139.016C1518.83 147.967 1526.56 157.408 1531.45 167.336C1536.33 177.264 1538.77 186.949 1538.77 196.389C1538.77 205.015 1535.68 212.827 1529.49 219.826C1523.47 226.662 1515.9 230.08 1506.79 230.08C1498.49 230.08 1492.14 228.046 1487.74 223.977C1483.51 219.745 1478.87 212.909 1473.83 203.469C1467.32 189.96 1459.51 179.462 1450.39 171.975C1441.28 164.325 1426.63 160.5 1406.45 160.5C1387.73 160.5 1372.59 164.65 1361.04 172.951C1349.64 181.089 1343.95 190.936 1343.95 202.492C1343.95 209.654 1345.9 215.839 1349.8 221.047C1353.71 226.255 1359.08 230.731 1365.92 234.475C1372.75 238.218 1379.67 241.148 1386.67 243.264C1393.67 245.38 1405.22 248.472 1421.34 252.541C1441.52 257.261 1459.75 262.469 1476.03 268.166C1492.46 273.863 1506.38 280.78 1517.77 288.918C1529.33 297.056 1538.28 307.391 1544.63 319.924C1551.14 332.294 1554.39 347.512 1554.39 365.578ZM1618.85 434.914V152.932C1618.85 138.283 1622.18 127.297 1628.86 119.973C1635.53 112.648 1644.16 108.986 1654.74 108.986C1665.64 108.986 1674.43 112.648 1681.1 119.973C1687.94 127.134 1691.36 138.12 1691.36 152.932V434.914C1691.36 449.725 1687.94 460.793 1681.1 468.117C1674.43 475.441 1665.64 479.104 1654.74 479.104C1644.32 479.104 1635.69 475.441 1628.86 468.117C1622.18 460.63 1618.85 449.562 1618.85 434.914ZM2044.63 365.578C2044.63 387.225 2039.01 406.675 2027.78 423.928C2016.72 441.18 2000.44 454.689 1978.96 464.455C1957.47 474.221 1932 479.104 1902.54 479.104C1867.22 479.104 1838.09 472.43 1815.14 459.084C1798.86 449.481 1785.6 436.704 1775.34 420.754C1765.25 404.641 1760.21 389.016 1760.21 373.879C1760.21 365.09 1763.22 357.603 1769.24 351.418C1775.42 345.07 1783.24 341.896 1792.68 341.896C1800.33 341.896 1806.75 344.338 1811.96 349.221C1817.33 354.104 1821.89 361.346 1825.63 370.949C1830.19 382.342 1835.07 391.864 1840.28 399.514C1845.65 407.163 1853.14 413.511 1862.74 418.557C1872.35 423.439 1884.96 425.881 1900.59 425.881C1922.07 425.881 1939.49 420.917 1952.83 410.988C1966.34 400.897 1973.1 388.365 1973.1 373.391C1973.1 361.509 1969.43 351.906 1962.11 344.582C1954.95 337.095 1945.59 331.398 1934.03 327.492C1922.64 323.586 1907.34 319.436 1888.13 315.041C1862.42 309.019 1840.85 302.02 1823.44 294.045C1806.18 285.907 1792.43 274.921 1782.18 261.086C1772.09 247.089 1767.04 229.755 1767.04 209.084C1767.04 189.39 1772.41 171.893 1783.15 156.594C1793.9 141.294 1809.44 129.576 1829.79 121.438C1850.13 113.137 1874.06 108.986 1901.56 108.986C1923.54 108.986 1942.5 111.753 1958.45 117.287C1974.56 122.658 1987.91 129.901 1998.49 139.016C2009.07 147.967 2016.8 157.408 2021.68 167.336C2026.56 177.264 2029 186.949 2029 196.389C2029 205.015 2025.91 212.827 2019.73 219.826C2013.7 226.662 2006.14 230.08 1997.02 230.08C1988.72 230.08 1982.37 228.046 1977.98 223.977C1973.75 219.745 1969.11 212.909 1964.06 203.469C1957.55 189.96 1949.74 179.462 1940.62 171.975C1931.51 164.325 1916.86 160.5 1896.68 160.5C1877.96 160.5 1862.83 164.65 1851.27 172.951C1839.88 181.089 1834.18 190.936 1834.18 202.492C1834.18 209.654 1836.13 215.839 1840.04 221.047C1843.95 226.255 1849.32 230.731 1856.15 234.475C1862.99 238.218 1869.91 241.148 1876.9 243.264C1883.9 245.38 1895.46 248.472 1911.57 252.541C1931.75 257.261 1949.98 262.469 1966.26 268.166C1982.7 273.863 1996.61 280.78 2008.01 288.918C2019.56 297.056 2028.52 307.391 2034.86 319.924C2041.37 332.294 2044.63 347.512 2044.63 365.578ZM2359.57 416.604L2301.71 202.004L2243.12 416.604C2238.56 432.88 2234.9 444.598 2232.13 451.76C2229.52 458.758 2224.89 465.106 2218.21 470.803C2211.54 476.337 2202.67 479.104 2191.6 479.104C2182.65 479.104 2175.24 477.395 2169.38 473.977C2163.69 470.721 2159.05 466.083 2155.47 460.061C2151.89 453.876 2148.96 446.633 2146.68 438.332C2144.4 429.868 2142.37 422.056 2140.58 414.895L2081.01 173.928C2077.43 159.93 2075.63 149.27 2075.63 141.945C2075.63 132.668 2078.89 124.855 2085.4 118.508C2091.91 112.16 2099.97 108.986 2109.57 108.986C2122.75 108.986 2131.62 113.218 2136.18 121.682C2140.74 130.145 2144.73 142.434 2148.14 158.547L2195.02 367.531L2247.51 171.975C2251.42 157.001 2254.92 145.607 2258.01 137.795C2261.1 129.982 2266.15 123.228 2273.14 117.531C2280.14 111.835 2289.66 108.986 2301.71 108.986C2313.92 108.986 2323.36 111.997 2330.03 118.02C2336.87 123.879 2341.59 130.308 2344.19 137.307C2346.79 144.305 2350.29 155.861 2354.69 171.975L2407.67 367.531L2454.54 158.547C2456.82 147.642 2458.94 139.097 2460.89 132.912C2463 126.727 2466.5 121.193 2471.39 116.311C2476.43 111.428 2483.68 108.986 2493.12 108.986C2502.56 108.986 2510.53 112.16 2517.04 118.508C2523.71 124.693 2527.05 132.505 2527.05 141.945C2527.05 148.618 2525.26 159.279 2521.68 173.928L2462.11 414.895C2458.04 431.171 2454.62 443.133 2451.86 450.783C2449.25 458.27 2444.69 464.862 2438.18 470.559C2431.84 476.255 2422.8 479.104 2411.08 479.104C2400.02 479.104 2391.15 476.337 2384.47 470.803C2377.8 465.269 2373.16 459.084 2370.56 452.248C2367.95 445.249 2364.29 433.368 2359.57 416.604ZM2578.32 434.914V152.932C2578.32 138.283 2581.66 127.297 2588.33 119.973C2595 112.648 2603.63 108.986 2614.21 108.986C2625.11 108.986 2633.9 112.648 2640.58 119.973C2647.41 127.134 2650.83 138.12 2650.83 152.932V434.914C2650.83 449.725 2647.41 460.793 2640.58 468.117C2633.9 475.441 2625.11 479.104 2614.21 479.104C2603.79 479.104 2595.17 475.441 2588.33 468.117C2581.66 460.63 2578.32 449.562 2578.32 434.914ZM3004.1 365.578C3004.1 387.225 2998.49 406.675 2987.26 423.928C2976.19 441.18 2959.91 454.689 2938.43 464.455C2916.94 474.221 2891.47 479.104 2862.01 479.104C2826.69 479.104 2797.56 472.43 2774.61 459.084C2758.33 449.481 2745.07 436.704 2734.81 420.754C2724.72 404.641 2719.68 389.016 2719.68 373.879C2719.68 365.09 2722.69 357.603 2728.71 351.418C2734.9 345.07 2742.71 341.896 2752.15 341.896C2759.8 341.896 2766.23 344.338 2771.44 349.221C2776.81 354.104 2781.36 361.346 2785.11 370.949C2789.66 382.342 2794.55 391.864 2799.76 399.514C2805.13 407.163 2812.61 413.511 2822.22 418.557C2831.82 423.439 2844.43 425.881 2860.06 425.881C2881.54 425.881 2898.96 420.917 2912.3 410.988C2925.81 400.897 2932.57 388.365 2932.57 373.391C2932.57 361.509 2928.91 351.906 2921.58 344.582C2914.42 337.095 2905.06 331.398 2893.51 327.492C2882.11 323.586 2866.81 319.436 2847.61 315.041C2821.89 309.019 2800.33 302.02 2782.91 294.045C2765.66 285.907 2751.9 274.921 2741.65 261.086C2731.56 247.089 2726.51 229.755 2726.51 209.084C2726.51 189.39 2731.88 171.893 2742.63 156.594C2753.37 141.294 2768.91 129.576 2789.26 121.438C2809.6 113.137 2833.53 108.986 2861.04 108.986C2883.01 108.986 2901.97 111.753 2917.92 117.287C2934.03 122.658 2947.38 129.901 2957.96 139.016C2968.54 147.967 2976.27 157.408 2981.15 167.336C2986.04 177.264 2988.48 186.949 2988.48 196.389C2988.48 205.015 2985.38 212.827 2979.2 219.826C2973.18 226.662 2965.61 230.08 2956.49 230.08C2948.19 230.08 2941.85 228.046 2937.45 223.977C2933.22 219.745 2928.58 212.909 2923.54 203.469C2917.02 189.96 2909.21 179.462 2900.1 171.975C2890.98 164.325 2876.33 160.5 2856.15 160.5C2837.43 160.5 2822.3 164.65 2810.74 172.951C2799.35 181.089 2793.65 190.936 2793.65 202.492C2793.65 209.654 2795.61 215.839 2799.51 221.047C2803.42 226.255 2808.79 230.731 2815.62 234.475C2822.46 238.218 2829.38 241.148 2836.38 243.264C2843.38 245.38 2854.93 248.472 2871.04 252.541C2891.23 257.261 2909.46 262.469 2925.73 268.166C2942.17 273.863 2956.09 280.78 2967.48 288.918C2979.04 297.056 2987.99 307.391 2994.34 319.924C3000.85 332.294 3004.1 347.512 3004.1 365.578ZM3301.46 170.998H3138.13V258.889H3288.53C3299.59 258.889 3307.81 261.411 3313.18 266.457C3318.72 271.34 3321.48 277.85 3321.48 285.988C3321.48 294.126 3318.8 300.799 3313.43 306.008C3308.06 311.053 3299.76 313.576 3288.53 313.576H3138.13V415.383H3307.08C3318.47 415.383 3327.02 418.068 3332.71 423.439C3338.57 428.648 3341.5 435.646 3341.5 444.436C3341.5 452.899 3338.57 459.816 3332.71 465.188C3327.02 470.396 3318.47 473 3307.08 473H3110.06C3094.27 473 3082.88 469.501 3075.88 462.502C3069.04 455.503 3065.62 444.191 3065.62 428.566V159.523C3065.62 149.107 3067.17 140.643 3070.26 134.133C3073.36 127.46 3078.16 122.658 3084.67 119.729C3091.34 116.636 3099.8 115.09 3110.06 115.09H3301.46C3313.02 115.09 3321.57 117.694 3327.1 122.902C3332.8 127.948 3335.64 134.621 3335.64 142.922C3335.64 151.385 3332.8 158.221 3327.1 163.43C3321.57 168.475 3313.02 170.998 3301.46 170.998Z" fill="white"/>
</svg>
